<svg width="44" height="42" viewBox="0 0 44 42" fill="none" xmlns="http://www.w3.org/2000/svg">
<path d="M4.5 14H3.65799C2.64023 14 2.27304 12.6568 3.14926 12.1391L21.4913 1.30061C21.8051 1.11518 22.1949 1.11518 22.5087 1.30061L40.8507 12.1391C41.727 12.6568 41.3598 14 40.342 14H39.25M4.5 14H11.5M4.5 14V19M11.5 14H19M11.5 14V22M19 14V20M19 14H25M25 14V20M25 14H32H34.5M34.5 14V20M34.5 14H39.25M39.25 14V20M4.5 19L11.5 22M4.5 19V24.5M11.5 22V27.5M11.5 27.5L4.5 24.5M11.5 27.5V33.5M4.5 24.5V30.5M11.5 33.5V34C11.5 34.5523 11.0523 35 10.5 35H5.5C4.94772 35 4.5 34.5523 4.5 34V30.5M11.5 33.5L4.5 30.5M14 35H3.5C2.94772 35 2.5 35.4477 2.5 36V39.5C2.5 40.0523 2.94772 40.5 3.5 40.5H14M32 35H36.5M25 31V31.5M24.5 32.5H25C25.5523 32.5 26 32.0523 26 31.5V30.5C26 29.9477 25.5523 29.5 25 29.5H24.5C23.9477 29.5 23.5 29.9477 23.5 30.5V31.5C23.5 32.0523 23.9477 32.5 24.5 32.5ZM19.5 40.5H40C40.5523 40.5 41 40.0523 41 39.5V26C41 25.4477 40.5523 25 40 25H19.5C18.9477 25 18.5 25.4477 18.5 26V39.5C18.5 40.0523 18.9477 40.5 19.5 40.5Z" stroke="black" stroke-width="2" stroke-linecap="round"/>
</svg>
